<svg width="103" height="40" viewBox="0 0 103 40" fill="none" xmlns="http://www.w3.org/2000/svg">
<rect width="103" height="40" fill="#F0F3F5"/>
<path d="M20.1895 16.6055L17.6406 24H16.0996L19.3105 15.4688H20.2949L20.1895 16.6055ZM22.3223 24L19.7676 16.6055L19.6562 15.4688H20.6465L23.8691 24H22.3223ZM22.1992 20.8359V22.002H17.5586V20.8359H22.1992ZM26.7184 15.4688V24H25.2535V15.4688H26.7184ZM31.8512 15.4688L28.3824 20.332H26.3023L26.1031 19.0547H27.568L30.0523 15.4688H31.8512ZM30.3512 24L27.5914 20.1094L28.5406 18.9785L32.1148 24H30.3512ZM36.8684 15.4688V24H35.4094V15.4688H36.8684ZM39.5461 15.4688V16.6406H32.7551V15.4688H39.5461ZM42.5242 21.6035L46.3094 15.4688H47.7801V24H46.3094V17.8594L42.5242 24H41.0594V15.4688H42.5242V21.6035ZM53.143 20.1445H50.9691L50.9574 19.0723H52.8559C53.1762 19.0723 53.4477 19.0254 53.6703 18.9316C53.8969 18.834 54.0687 18.6953 54.1859 18.5156C54.3031 18.332 54.3617 18.1113 54.3617 17.8535C54.3617 17.5684 54.307 17.3359 54.1977 17.1562C54.0883 16.9766 53.9203 16.8457 53.6937 16.7637C53.4711 16.6816 53.1859 16.6406 52.8383 16.6406H51.4145V24H49.9437V15.4688H52.8383C53.307 15.4688 53.725 15.5137 54.0922 15.6035C54.4633 15.6934 54.7777 15.834 55.0355 16.0254C55.2973 16.2129 55.4945 16.4512 55.6273 16.7402C55.7641 17.0293 55.8324 17.373 55.8324 17.7715C55.8324 18.123 55.7484 18.4453 55.5805 18.7383C55.4125 19.0273 55.1645 19.2637 54.8363 19.4473C54.5082 19.6309 54.1 19.7402 53.6117 19.7754L53.143 20.1445ZM53.0785 24H50.5062L51.1684 22.834H53.0785C53.4105 22.834 53.6879 22.7793 53.9105 22.6699C54.1332 22.5566 54.2992 22.4023 54.4086 22.207C54.5219 22.0078 54.5785 21.7754 54.5785 21.5098C54.5785 21.2324 54.5297 20.9922 54.432 20.7891C54.3344 20.582 54.1801 20.4238 53.9691 20.3145C53.7582 20.2012 53.4828 20.1445 53.143 20.1445H51.4906L51.5023 19.0723H53.6527L53.9867 19.4766C54.4555 19.4922 54.8402 19.5957 55.141 19.7871C55.4457 19.9785 55.6723 20.2266 55.8207 20.5312C55.9691 20.8359 56.0434 21.1641 56.0434 21.5156C56.0434 22.0586 55.9242 22.5137 55.6859 22.8809C55.4516 23.248 55.1137 23.5273 54.6723 23.7188C54.2309 23.9062 53.6996 24 53.0785 24ZM63.5098 22.834V24H58.9805V22.834H63.5098ZM59.3965 15.4688V24H57.9258V15.4688H59.3965ZM62.918 19.0312V20.1797H58.9805V19.0312H62.918ZM63.4805 15.4688V16.6406H58.9805V15.4688H63.4805ZM70.7477 19.0312V20.1973H66.2184V19.0312H70.7477ZM66.5816 15.4688V24H65.1109V15.4688H66.5816ZM71.8785 15.4688V24H70.4137V15.4688H71.8785Z" fill="#3C3F41"/>
<path d="M82 18L87 23L92 18H82Z" fill="#717475"/>
</svg>
