<svg width="138" height="32" viewBox="0 0 138 32" fill="none" xmlns="http://www.w3.org/2000/svg">
<path d="M0.5 4C0.5 2.067 2.067 0.5 4 0.5L35.5 0.5L35.5 31.5L4 31.5C2.067 31.5 0.5 29.933 0.5 28L0.5 4Z" fill="white"/>
<path d="M20.71 19.88L16.83 16L20.71 12.12C21.1 11.73 21.1 11.1 20.71 10.71C20.32 10.32 19.69 10.32 19.3 10.71L14.71 15.3C14.32 15.69 14.32 16.32 14.71 16.71L19.3 21.3C19.69 21.69 20.32 21.69 20.71 21.3C21.09 20.91 21.1 20.27 20.71 19.88Z" fill="#717475"/>
<path d="M0.5 4C0.5 2.067 2.067 0.5 4 0.5L35.5 0.5L35.5 31.5L4 31.5C2.067 31.5 0.5 29.933 0.5 28L0.5 4Z" stroke="#DDE2E5"/>
<rect x="35.5" y="0.5" width="67" height="31" fill="white"/>
<path d="M53.8281 19.0352V20H47.7788V19.1558L50.8066 15.7852C51.179 15.3704 51.4668 15.0192 51.6699 14.7314C51.8773 14.4395 52.0212 14.1792 52.1016 13.9507C52.1862 13.7179 52.2285 13.481 52.2285 13.2397C52.2285 12.9351 52.165 12.66 52.0381 12.4146C51.9154 12.1649 51.7334 11.966 51.4922 11.8179C51.251 11.6698 50.959 11.5957 50.6162 11.5957C50.2057 11.5957 49.863 11.6761 49.5879 11.8369C49.3171 11.9935 49.1139 12.2135 48.9785 12.4971C48.8431 12.7806 48.7754 13.1064 48.7754 13.4746H47.6011C47.6011 12.9541 47.7153 12.478 47.9438 12.0464C48.1724 11.6147 48.5109 11.272 48.9595 11.0181C49.408 10.7599 49.9603 10.6309 50.6162 10.6309C51.2002 10.6309 51.6995 10.7345 52.1143 10.9419C52.529 11.145 52.8464 11.4328 53.0664 11.8052C53.2907 12.1733 53.4028 12.605 53.4028 13.1001C53.4028 13.3709 53.3563 13.646 53.2632 13.9253C53.1743 14.2004 53.0495 14.4754 52.8887 14.7505C52.7321 15.0256 52.548 15.2964 52.3364 15.563C52.1291 15.8296 51.9069 16.092 51.6699 16.3501L49.1943 19.0352H53.8281ZM60.2061 18.1401L63.3735 13.1318H64.5542V20H63.3735V14.9917L60.2061 20H59.0381V13.1318H60.2061V18.1401ZM69.2539 16.7183H67.9907V15.9946H69.1587C69.4845 15.9946 69.7427 15.9544 69.9331 15.874C70.1235 15.7894 70.259 15.673 70.3394 15.5249C70.4198 15.3768 70.46 15.2033 70.46 15.0044C70.46 14.8267 70.4134 14.6595 70.3203 14.5029C70.2314 14.3421 70.0876 14.2131 69.8887 14.1157C69.6898 14.0142 69.4232 13.9634 69.0889 13.9634C68.818 13.9634 68.5726 14.012 68.3525 14.1094C68.1325 14.2025 67.9569 14.3315 67.8257 14.4966C67.6987 14.6574 67.6353 14.8394 67.6353 15.0425H66.4609C66.4609 14.6235 66.5794 14.2638 66.8164 13.9634C67.0576 13.6587 67.3771 13.4238 67.7749 13.2588C68.1769 13.0938 68.6149 13.0112 69.0889 13.0112C69.4867 13.0112 69.8421 13.0557 70.1553 13.1445C70.4727 13.2292 70.7414 13.3561 70.9614 13.5254C71.1815 13.6904 71.3486 13.8978 71.4629 14.1475C71.5814 14.3929 71.6406 14.6785 71.6406 15.0044C71.6406 15.2371 71.5856 15.4572 71.4756 15.6646C71.3656 15.8719 71.2069 16.056 70.9995 16.2168C70.7922 16.3734 70.5404 16.4961 70.2441 16.585C69.9521 16.6738 69.6221 16.7183 69.2539 16.7183ZM67.9907 16.2739H69.2539C69.6644 16.2739 70.0262 16.3141 70.3394 16.3945C70.6525 16.4707 70.9149 16.585 71.1265 16.7373C71.3381 16.8896 71.4967 17.078 71.6025 17.3022C71.7126 17.5223 71.7676 17.7762 71.7676 18.064C71.7676 18.3856 71.702 18.6755 71.5708 18.9336C71.4438 19.1875 71.2619 19.4033 71.0249 19.5811C70.7879 19.7588 70.5044 19.8942 70.1743 19.9873C69.8485 20.0804 69.4867 20.127 69.0889 20.127C68.6445 20.127 68.2129 20.0508 67.7939 19.8984C67.375 19.7461 67.0301 19.5112 66.7593 19.1938C66.4884 18.8722 66.353 18.4639 66.353 17.9688H67.5273C67.5273 18.1761 67.5929 18.3729 67.7241 18.5591C67.8553 18.7453 68.0373 18.8955 68.27 19.0098C68.507 19.124 68.7799 19.1812 69.0889 19.1812C69.4189 19.1812 69.694 19.1304 69.9141 19.0288C70.1341 18.9272 70.2992 18.7918 70.4092 18.6226C70.5234 18.4533 70.5806 18.2692 70.5806 18.0703C70.5806 17.8122 70.5298 17.6048 70.4282 17.4482C70.3267 17.2917 70.1701 17.1774 69.9585 17.1055C69.7511 17.0293 69.4845 16.9912 69.1587 16.9912H67.9907V16.2739ZM80.748 10.707V20H79.5737V12.1733L77.2061 13.0366V11.9766L80.564 10.707H80.748ZM90.5068 19.0352V20H84.4575V19.1558L87.4854 15.7852C87.8577 15.3704 88.1455 15.0192 88.3486 14.7314C88.556 14.4395 88.6999 14.1792 88.7803 13.9507C88.8649 13.7179 88.9072 13.481 88.9072 13.2397C88.9072 12.9351 88.8438 12.66 88.7168 12.4146C88.5941 12.1649 88.4121 11.966 88.1709 11.8179C87.9297 11.6698 87.6377 11.5957 87.2949 11.5957C86.8844 11.5957 86.5417 11.6761 86.2666 11.8369C85.9958 11.9935 85.7926 12.2135 85.6572 12.4971C85.5218 12.7806 85.4541 13.1064 85.4541 13.4746H84.2798C84.2798 12.9541 84.394 12.478 84.6226 12.0464C84.8511 11.6147 85.1896 11.272 85.6382 11.0181C86.0868 10.7599 86.639 10.6309 87.2949 10.6309C87.8789 10.6309 88.3783 10.7345 88.793 10.9419C89.2077 11.145 89.5251 11.4328 89.7451 11.8052C89.9694 12.1733 90.0815 12.605 90.0815 13.1001C90.0815 13.3709 90.035 13.646 89.9419 13.9253C89.853 14.2004 89.7282 14.4754 89.5674 14.7505C89.4108 15.0256 89.2267 15.2964 89.0151 15.563C88.8078 15.8296 88.5856 16.092 88.3486 16.3501L85.873 19.0352H90.5068Z" fill="#717475"/>
<rect x="35.5" y="0.5" width="67" height="31" stroke="#DDE2E5"/>
<path d="M102.5 0.5L134 0.5C135.933 0.5 137.5 2.067 137.5 4V28C137.5 29.933 135.933 31.5 134 31.5L102.5 31.5V0.5Z" fill="white"/>
<path d="M117.29 19.88L121.17 16L117.29 12.12C116.9 11.73 116.9 11.1 117.29 10.71C117.68 10.32 118.31 10.32 118.7 10.71L123.29 15.3C123.68 15.69 123.68 16.32 123.29 16.71L118.7 21.3C118.31 21.69 117.68 21.69 117.29 21.3C116.91 20.91 116.9 20.27 117.29 19.88Z" fill="#717475"/>
<path d="M102.5 0.5L134 0.5C135.933 0.5 137.5 2.067 137.5 4V28C137.5 29.933 135.933 31.5 134 31.5L102.5 31.5V0.5Z" stroke="#DDE2E5"/>
</svg>
