<svg width="158" height="36" viewBox="0 0 158 36" fill="none" xmlns="http://www.w3.org/2000/svg">
<g filter="url(#filter0_ddd_1_1143)">
<rect y="2" width="158" height="32" rx="4" fill="white"/>
<g filter="url(#filter1_ddd_1_1143)">
<path d="M23.6172 13.4688V22H22.1523V14.6406H18.3613V22H16.8965V13.4688H23.6172ZM33.1895 17.5V17.9688C33.1895 18.6133 33.1055 19.1914 32.9375 19.7031C32.7695 20.2148 32.5293 20.6504 32.2168 21.0098C31.9082 21.3691 31.5371 21.6445 31.1035 21.8359C30.6699 22.0234 30.1895 22.1172 29.6621 22.1172C29.1387 22.1172 28.6602 22.0234 28.2266 21.8359C27.7969 21.6445 27.4238 21.3691 27.1074 21.0098C26.791 20.6504 26.5449 20.2148 26.3691 19.7031C26.1973 19.1914 26.1113 18.6133 26.1113 17.9688V17.5C26.1113 16.8555 26.1973 16.2793 26.3691 15.7715C26.541 15.2598 26.7832 14.8242 27.0957 14.4648C27.4121 14.1016 27.7852 13.8262 28.2148 13.6387C28.6484 13.4473 29.127 13.3516 29.6504 13.3516C30.1777 13.3516 30.6582 13.4473 31.0918 13.6387C31.5254 13.8262 31.8984 14.1016 32.2109 14.4648C32.5234 14.8242 32.7637 15.2598 32.9316 15.7715C33.1035 16.2793 33.1895 16.8555 33.1895 17.5ZM31.7188 17.9688V17.4883C31.7188 17.0117 31.6719 16.5918 31.5781 16.2285C31.4883 15.8613 31.3535 15.5547 31.1738 15.3086C30.998 15.0586 30.7812 14.8711 30.5234 14.7461C30.2656 14.6172 29.9746 14.5527 29.6504 14.5527C29.3262 14.5527 29.0371 14.6172 28.7832 14.7461C28.5293 14.8711 28.3125 15.0586 28.1328 15.3086C27.957 15.5547 27.8223 15.8613 27.7285 16.2285C27.6348 16.5918 27.5879 17.0117 27.5879 17.4883V17.9688C27.5879 18.4453 27.6348 18.8672 27.7285 19.2344C27.8223 19.6016 27.959 19.9121 28.1387 20.166C28.3223 20.416 28.541 20.6055 28.7949 20.7344C29.0488 20.8594 29.3379 20.9219 29.6621 20.9219C29.9902 20.9219 30.2812 20.8594 30.5352 20.7344C30.7891 20.6055 31.0039 20.416 31.1797 20.166C31.3555 19.9121 31.4883 19.6016 31.5781 19.2344C31.6719 18.8672 31.7188 18.4453 31.7188 17.9688ZM37.1543 13.4688V22H35.6895V13.4688H37.1543ZM42.2871 13.4688L38.8184 18.332H36.7383L36.5391 17.0547H38.0039L40.4883 13.4688H42.2871ZM40.7871 22L38.0273 18.1094L38.9766 16.9785L42.5508 22H40.7871ZM47.7168 14.6055L45.168 22H43.627L46.8379 13.4688H47.8223L47.7168 14.6055ZM49.8496 22L47.2949 14.6055L47.1836 13.4688H48.1738L51.3965 22H49.8496ZM49.7266 18.8359V20.002H45.0859V18.8359H49.7266ZM56.2754 17.9102H55.0918V17.0723H56.1113C56.4746 17.0723 56.7695 17.0195 56.9961 16.9141C57.2227 16.8047 57.3867 16.6543 57.4883 16.4629C57.5938 16.2676 57.6465 16.041 57.6465 15.7832C57.6465 15.5527 57.5879 15.3418 57.4707 15.1504C57.3574 14.959 57.1816 14.8066 56.9434 14.6934C56.7051 14.5762 56.3984 14.5176 56.0234 14.5176C55.7422 14.5176 55.4863 14.5684 55.2559 14.6699C55.0254 14.7715 54.8418 14.9141 54.7051 15.0977C54.5723 15.2812 54.5059 15.498 54.5059 15.748H53.0352C53.0352 15.377 53.1133 15.0449 53.2695 14.752C53.4297 14.4551 53.6465 14.2031 53.9199 13.9961C54.1973 13.7891 54.5156 13.6309 54.875 13.5215C55.2383 13.4082 55.6211 13.3516 56.0234 13.3516C56.4922 13.3516 56.916 13.4043 57.2949 13.5098C57.6738 13.6113 58 13.7637 58.2734 13.9668C58.5469 14.1699 58.7559 14.4238 58.9004 14.7285C59.0449 15.0293 59.1172 15.3789 59.1172 15.7773C59.1172 16.0703 59.0488 16.3457 58.9121 16.6035C58.7793 16.8613 58.5879 17.0879 58.3379 17.2832C58.0879 17.4785 57.7871 17.6328 57.4355 17.7461C57.0879 17.8555 56.7012 17.9102 56.2754 17.9102ZM55.0918 17.4004H56.2754C56.748 17.4004 57.168 17.4492 57.5352 17.5469C57.9023 17.6445 58.2129 17.7871 58.4668 17.9746C58.7207 18.1621 58.9141 18.3945 59.0469 18.6719C59.1797 18.9453 59.2461 19.2598 59.2461 19.6152C59.2461 20.0137 59.166 20.3691 59.0059 20.6816C58.8496 20.9902 58.627 21.252 58.3379 21.4668C58.0488 21.6816 57.707 21.8438 57.3125 21.9531C56.9219 22.0625 56.4922 22.1172 56.0234 22.1172C55.6445 22.1172 55.2695 22.0703 54.8984 21.9766C54.5312 21.8789 54.1973 21.7305 53.8965 21.5312C53.5996 21.3281 53.3613 21.0703 53.1816 20.7578C53.002 20.4453 52.9121 20.0703 52.9121 19.6328H54.3887C54.3887 19.875 54.457 20.0977 54.5938 20.3008C54.7344 20.5 54.9258 20.6602 55.168 20.7812C55.4141 20.8984 55.6992 20.957 56.0234 20.957C56.3945 20.957 56.709 20.8984 56.9668 20.7812C57.2285 20.6641 57.4277 20.5039 57.5645 20.3008C57.7051 20.0977 57.7754 19.8691 57.7754 19.6152C57.7754 19.373 57.7383 19.1641 57.6641 18.9883C57.5938 18.8086 57.4883 18.6641 57.3477 18.5547C57.207 18.4414 57.0332 18.3574 56.8262 18.3027C56.6191 18.248 56.3809 18.2207 56.1113 18.2207H55.0918V17.4004ZM64.9629 14.6055L62.4141 22H60.873L64.084 13.4688H65.0684L64.9629 14.6055ZM67.0957 22L64.541 14.6055L64.4297 13.4688H65.4199L68.6426 22H67.0957ZM66.9727 18.8359V20.002H62.332V18.8359H66.9727ZM73.3691 13.4688V22H71.9102V13.4688H73.3691ZM76.0469 13.4688V14.6406H69.2559V13.4688H76.0469ZM79.2617 16.7441H81.4062C82.0547 16.7441 82.6094 16.8535 83.0703 17.0723C83.5312 17.2871 83.8828 17.5898 84.125 17.9805C84.3672 18.3711 84.4883 18.8262 84.4883 19.3457C84.4883 19.7363 84.4199 20.0938 84.2832 20.418C84.1465 20.7422 83.9453 21.0234 83.6797 21.2617C83.4141 21.4961 83.0898 21.6777 82.707 21.8066C82.3281 21.9355 81.8945 22 81.4062 22H78.2422V13.4688H79.7188V20.834H81.4062C81.7773 20.834 82.082 20.7656 82.3203 20.6289C82.5586 20.4883 82.7344 20.3047 82.8477 20.0781C82.9648 19.8516 83.0234 19.6035 83.0234 19.334C83.0234 19.0723 82.9648 18.834 82.8477 18.6191C82.7344 18.4043 82.5586 18.2324 82.3203 18.1035C82.082 17.9746 81.7773 17.9102 81.4062 17.9102H79.2617V16.7441ZM94.3984 13.4395V22H92.9863V15.1152L90.8945 15.8242V14.6582L94.2285 13.4395H94.3984ZM103.924 17.0195V18.4141C103.924 19.082 103.857 19.6523 103.725 20.125C103.596 20.5938 103.408 20.9746 103.162 21.2676C102.916 21.5605 102.621 21.7754 102.277 21.9121C101.938 22.0488 101.557 22.1172 101.135 22.1172C100.799 22.1172 100.486 22.0742 100.197 21.9883C99.9121 21.9023 99.6543 21.7676 99.4238 21.584C99.1934 21.4004 98.9961 21.1641 98.832 20.875C98.6719 20.582 98.5469 20.2324 98.457 19.8262C98.3711 19.4199 98.3281 18.9492 98.3281 18.4141V17.0195C98.3281 16.3477 98.3945 15.7812 98.5273 15.3203C98.6602 14.8555 98.8496 14.4785 99.0957 14.1895C99.3418 13.8965 99.6348 13.6836 99.9746 13.5508C100.318 13.418 100.701 13.3516 101.123 13.3516C101.463 13.3516 101.775 13.3945 102.061 13.4805C102.35 13.5625 102.607 13.6934 102.834 13.873C103.064 14.0527 103.26 14.2871 103.42 14.5762C103.584 14.8613 103.709 15.207 103.795 15.6133C103.881 16.0156 103.924 16.4844 103.924 17.0195ZM102.512 18.6133V16.8086C102.512 16.4688 102.492 16.1699 102.453 15.9121C102.414 15.6504 102.355 15.4297 102.277 15.25C102.203 15.0664 102.109 14.918 101.996 14.8047C101.883 14.6875 101.754 14.6035 101.609 14.5527C101.465 14.498 101.303 14.4707 101.123 14.4707C100.904 14.4707 100.709 14.5137 100.537 14.5996C100.365 14.6816 100.221 14.8145 100.104 14.998C99.9863 15.1816 99.8965 15.4238 99.834 15.7246C99.7754 16.0215 99.7461 16.3828 99.7461 16.8086V18.6133C99.7461 18.957 99.7656 19.2598 99.8047 19.5215C99.8438 19.7832 99.9023 20.0078 99.9805 20.1953C100.059 20.3789 100.152 20.5312 100.262 20.6523C100.375 20.7695 100.504 20.8555 100.648 20.9102C100.797 20.9648 100.959 20.9922 101.135 20.9922C101.357 20.9922 101.555 20.9492 101.727 20.8633C101.898 20.7773 102.043 20.6406 102.16 20.4531C102.277 20.2617 102.365 20.0137 102.424 19.709C102.482 19.4043 102.512 19.0391 102.512 18.6133Z" fill="#3C3F41"/>
</g>
<rect x="121" y="2" width="1" height="32" fill="#DDE2E5"/>
<g filter="url(#filter2_ddd_1_1143)">
<path d="M136.25 16.5L140 20.25L143.75 16.5H136.25Z" fill="#3C3F41"/>
</g>
<rect x="0.5" y="2.5" width="157" height="31" rx="3.5" stroke="#DDE2E5"/>
</g>
<defs>
<filter id="filter0_ddd_1_1143" x="0" y="0" width="158" height="36" filterUnits="userSpaceOnUse" color-interpolation-filters="sRGB">
<feFlood flood-opacity="0" result="BackgroundImageFix"/>
<feColorMatrix in="SourceAlpha" type="matrix" values="0 0 0 0 0 0 0 0 0 0 0 0 0 0 0 0 0 0 127 0" result="hardAlpha"/>
<feOffset/>
<feColorMatrix type="matrix" values="0 0 0 0 0 0 0 0 0 0 0 0 0 0 0 0 0 0 0.2 0"/>
<feBlend mode="normal" in2="BackgroundImageFix" result="effect1_dropShadow_1_1143"/>
<feColorMatrix in="SourceAlpha" type="matrix" values="0 0 0 0 0 0 0 0 0 0 0 0 0 0 0 0 0 0 127 0" result="hardAlpha"/>
<feOffset/>
<feColorMatrix type="matrix" values="0 0 0 0 0 0 0 0 0 0 0 0 0 0 0 0 0 0 0.14 0"/>
<feBlend mode="normal" in2="effect1_dropShadow_1_1143" result="effect2_dropShadow_1_1143"/>
<feColorMatrix in="SourceAlpha" type="matrix" values="0 0 0 0 0 0 0 0 0 0 0 0 0 0 0 0 0 0 127 0" result="hardAlpha"/>
<feOffset/>
<feColorMatrix type="matrix" values="0 0 0 0 0 0 0 0 0 0 0 0 0 0 0 0 0 0 0.12 0"/>
<feBlend mode="normal" in2="effect2_dropShadow_1_1143" result="effect3_dropShadow_1_1143"/>
<feBlend mode="normal" in="SourceGraphic" in2="effect3_dropShadow_1_1143" result="shape"/>
</filter>
<filter id="filter1_ddd_1_1143" x="0" y="0" width="121" height="36" filterUnits="userSpaceOnUse" color-interpolation-filters="sRGB">
<feFlood flood-opacity="0" result="BackgroundImageFix"/>
<feColorMatrix in="SourceAlpha" type="matrix" values="0 0 0 0 0 0 0 0 0 0 0 0 0 0 0 0 0 0 127 0" result="hardAlpha"/>
<feOffset/>
<feColorMatrix type="matrix" values="0 0 0 0 0 0 0 0 0 0 0 0 0 0 0 0 0 0 0.2 0"/>
<feBlend mode="normal" in2="BackgroundImageFix" result="effect1_dropShadow_1_1143"/>
<feColorMatrix in="SourceAlpha" type="matrix" values="0 0 0 0 0 0 0 0 0 0 0 0 0 0 0 0 0 0 127 0" result="hardAlpha"/>
<feOffset/>
<feColorMatrix type="matrix" values="0 0 0 0 0 0 0 0 0 0 0 0 0 0 0 0 0 0 0.14 0"/>
<feBlend mode="normal" in2="effect1_dropShadow_1_1143" result="effect2_dropShadow_1_1143"/>
<feColorMatrix in="SourceAlpha" type="matrix" values="0 0 0 0 0 0 0 0 0 0 0 0 0 0 0 0 0 0 127 0" result="hardAlpha"/>
<feOffset/>
<feColorMatrix type="matrix" values="0 0 0 0 0 0 0 0 0 0 0 0 0 0 0 0 0 0 0.12 0"/>
<feBlend mode="normal" in2="effect2_dropShadow_1_1143" result="effect3_dropShadow_1_1143"/>
<feBlend mode="normal" in="SourceGraphic" in2="effect3_dropShadow_1_1143" result="shape"/>
</filter>
<filter id="filter2_ddd_1_1143" x="122" y="0" width="36" height="36" filterUnits="userSpaceOnUse" color-interpolation-filters="sRGB">
<feFlood flood-opacity="0" result="BackgroundImageFix"/>
<feColorMatrix in="SourceAlpha" type="matrix" values="0 0 0 0 0 0 0 0 0 0 0 0 0 0 0 0 0 0 127 0" result="hardAlpha"/>
<feOffset/>
<feColorMatrix type="matrix" values="0 0 0 0 0 0 0 0 0 0 0 0 0 0 0 0 0 0 0.2 0"/>
<feBlend mode="normal" in2="BackgroundImageFix" result="effect1_dropShadow_1_1143"/>
<feColorMatrix in="SourceAlpha" type="matrix" values="0 0 0 0 0 0 0 0 0 0 0 0 0 0 0 0 0 0 127 0" result="hardAlpha"/>
<feOffset/>
<feColorMatrix type="matrix" values="0 0 0 0 0 0 0 0 0 0 0 0 0 0 0 0 0 0 0.14 0"/>
<feBlend mode="normal" in2="effect1_dropShadow_1_1143" result="effect2_dropShadow_1_1143"/>
<feColorMatrix in="SourceAlpha" type="matrix" values="0 0 0 0 0 0 0 0 0 0 0 0 0 0 0 0 0 0 127 0" result="hardAlpha"/>
<feOffset/>
<feColorMatrix type="matrix" values="0 0 0 0 0 0 0 0 0 0 0 0 0 0 0 0 0 0 0.12 0"/>
<feBlend mode="normal" in2="effect2_dropShadow_1_1143" result="effect3_dropShadow_1_1143"/>
<feBlend mode="normal" in="SourceGraphic" in2="effect3_dropShadow_1_1143" result="shape"/>
</filter>
</defs>
</svg>
