<svg width="140" height="40" viewBox="0 0 140 40" fill="none" xmlns="http://www.w3.org/2000/svg">
<rect width="140" height="40" fill="#F0F3F5"/>
<path d="M7.96094 16.2715H9.63672C10.1406 16.2715 10.6035 16.3555 11.0254 16.5234C11.4512 16.6914 11.8223 16.9297 12.1387 17.2383C12.4551 17.543 12.7012 17.9102 12.877 18.3398C13.0527 18.7656 13.1406 19.2402 13.1406 19.7637C13.1406 20.2793 13.0527 20.75 12.877 21.1758C12.7012 21.6016 12.4551 21.9688 12.1387 22.2773C11.8223 22.582 11.4512 22.8164 11.0254 22.9805C10.6035 23.1445 10.1406 23.2266 9.63672 23.2266H7.96094C7.46094 23.2266 6.99805 23.1445 6.57227 22.9805C6.14648 22.8164 5.77344 22.582 5.45312 22.2773C5.13672 21.9727 4.89062 21.6094 4.71484 21.1875C4.54297 20.7617 4.45703 20.291 4.45703 19.7754C4.45703 19.252 4.54297 18.7773 4.71484 18.3516C4.89062 17.9219 5.13672 17.5527 5.45312 17.2441C5.77344 16.9316 6.14648 16.6914 6.57227 16.5234C6.99805 16.3555 7.46094 16.2715 7.96094 16.2715ZM7.96094 17.4434C7.52344 17.4434 7.14648 17.5371 6.83008 17.7246C6.51367 17.9082 6.26953 18.1738 6.09766 18.5215C5.92969 18.8691 5.8457 19.2871 5.8457 19.7754C5.8457 20.1348 5.89453 20.4551 5.99219 20.7363C6.08984 21.0176 6.23047 21.2559 6.41406 21.4512C6.59766 21.6465 6.82031 21.7969 7.08203 21.9023C7.34375 22.0078 7.63672 22.0605 7.96094 22.0605H9.64844C10.082 22.0605 10.4551 21.9688 10.7676 21.7852C11.0801 21.5977 11.3203 21.332 11.4883 20.9883C11.6602 20.6445 11.7461 20.2363 11.7461 19.7637C11.7461 19.4004 11.6973 19.0762 11.5996 18.791C11.5059 18.502 11.3672 18.2578 11.1836 18.0586C11.0039 17.8594 10.7852 17.707 10.5273 17.6016C10.2695 17.4961 9.97656 17.4434 9.64844 17.4434H7.96094ZM9.50781 15.1172V24.3516H8.0957V15.1172H9.50781ZM16.2828 21.6035L20.068 15.4688H21.5387V24H20.068V17.8594L16.2828 24H14.818V15.4688H16.2828V21.6035ZM30.5051 19.5V19.9688C30.5051 20.6133 30.4211 21.1914 30.2531 21.7031C30.0852 22.2148 29.8449 22.6504 29.5324 23.0098C29.2238 23.3691 28.8527 23.6445 28.4191 23.8359C27.9855 24.0234 27.5051 24.1172 26.9777 24.1172C26.4543 24.1172 25.9758 24.0234 25.5422 23.8359C25.1125 23.6445 24.7395 23.3691 24.423 23.0098C24.1066 22.6504 23.8605 22.2148 23.6848 21.7031C23.5129 21.1914 23.427 20.6133 23.427 19.9688V19.5C23.427 18.8555 23.5129 18.2793 23.6848 17.7715C23.8566 17.2598 24.0988 16.8242 24.4113 16.4648C24.7277 16.1016 25.1008 15.8262 25.5305 15.6387C25.9641 15.4473 26.4426 15.3516 26.966 15.3516C27.4934 15.3516 27.9738 15.4473 28.4074 15.6387C28.841 15.8262 29.2141 16.1016 29.5266 16.4648C29.8391 16.8242 30.0793 17.2598 30.2473 17.7715C30.4191 18.2793 30.5051 18.8555 30.5051 19.5ZM29.0344 19.9688V19.4883C29.0344 19.0117 28.9875 18.5918 28.8937 18.2285C28.8039 17.8613 28.6691 17.5547 28.4895 17.3086C28.3137 17.0586 28.0969 16.8711 27.8391 16.7461C27.5812 16.6172 27.2902 16.5527 26.966 16.5527C26.6418 16.5527 26.3527 16.6172 26.0988 16.7461C25.8449 16.8711 25.6281 17.0586 25.4484 17.3086C25.2727 17.5547 25.1379 17.8613 25.0441 18.2285C24.9504 18.5918 24.9035 19.0117 24.9035 19.4883V19.9688C24.9035 20.4453 24.9504 20.8672 25.0441 21.2344C25.1379 21.6016 25.2746 21.9121 25.4543 22.166C25.6379 22.416 25.8566 22.6055 26.1105 22.7344C26.3645 22.8594 26.6535 22.9219 26.9777 22.9219C27.3059 22.9219 27.5969 22.8594 27.8508 22.7344C28.1047 22.6055 28.3195 22.416 28.4953 22.166C28.6711 21.9121 28.8039 21.6016 28.8937 21.2344C28.9875 20.8672 29.0344 20.4453 29.0344 19.9688Z" fill="#3C3F41"/>
<path d="M41 18L46 23L51 18H41Z" fill="#717475"/>
</svg>
